<svg width="60" height="60" viewBox="0 0 60 60" fill="none" xmlns="http://www.w3.org/2000/svg">
<path d="M22.5 27.5V15C22.5 10.8579 25.8577 7.5 30 7.5C34.1423 7.5 37.5 10.8579 37.5 15V27.4183M26 52.5H34C39.6005 52.5 42.4007 52.5 44.54 51.41C46.4215 50.4512 47.9512 48.9215 48.91 47.04C50 44.9007 50 42.1005 50 36.5V30.5C50 27.6997 50 26.2995 49.455 25.23C48.9757 24.2892 48.2108 23.5243 47.27 23.045C46.2005 22.5 44.8002 22.5 42 22.5H18C15.1997 22.5 13.7996 22.5 12.7301 23.045C11.7892 23.5243 11.0243 24.2892 10.545 25.23C10 26.2995 10 27.6997 10 30.5V36.5C10 42.1005 10 44.9007 11.0899 47.04C12.0487 48.9215 13.5785 50.4512 15.4601 51.41C17.5992 52.5 20.3995 52.5 26 52.5Z" stroke="#262626" stroke-width="5" stroke-linecap="round" stroke-linejoin="round"/>
</svg>
